<svg viewBox="0 0 1200 900" xmlns="http://www.w3.org/2000/svg">
    <!-- Background -->
    <rect width="1200" height="900" fill="#f8f9fa"/>
    
    <!-- Title -->
    <text x="600" y="40" text-anchor="middle" font-size="24" font-weight="bold" fill="#333">
        Node.js API - Complete Architecture &amp; CI/CD Pipeline
    </text>

    <!-- CI/CD Pipeline Section -->
    <rect x="50" y="80" width="1100" height="220" fill="#e3f2fd" rx="10"/>
    <text x="60" y="110" font-size="18" font-weight="bold" fill="#1976d2">CI/CD Pipeline (GitHub Actions)</text>
    
    <!-- Pipeline Steps -->
    <g transform="translate(70,130)">
        <!-- Source -->
        <rect width="120" height="60" fill="#90caf9" rx="5"/>
        <text x="60" y="35" text-anchor="middle" font-size="14">Code Commit</text>
        
        <!-- Lint & Test -->
        <rect x="180" width="120" height="60" fill="#90caf9" rx="5"/>
        <text x="240" y="25" text-anchor="middle" font-size="14">Lint &amp;</text>
        <text x="240" y="45" text-anchor="middle" font-size="14">Unit Tests</text>
        
        <!-- SonarQube -->
        <rect x="360" width="120" height="60" fill="#90caf9" rx="5"/>
        <text x="420" y="35" text-anchor="middle" font-size="14">SonarQube</text>
        
        <!-- Docker Build -->
        <rect x="540" width="120" height="60" fill="#90caf9" rx="5"/>
        <text x="600" y="25" text-anchor="middle" font-size="14">Docker Build</text>
        <text x="600" y="45" text-anchor="middle" font-size="14">&amp; Push ECR</text>
        
        <!-- Trivy Scan -->
        <rect x="720" width="120" height="60" fill="#90caf9" rx="5"/>
        <text x="780" y="35" text-anchor="middle" font-size="14">Trivy Scan</text>

        <!-- Deploy -->
        <rect x="900" width="120" height="60" fill="#90caf9" rx="5"/>
        <text x="960" y="35" text-anchor="middle" font-size="14">Deploy ECS</text>

        <!-- Connecting Arrows -->
        <line x1="120" y1="30" x2="180" y2="30" stroke="#1976d2" stroke-width="2" marker-end="url(#arrowhead)"/>
        <line x1="300" y1="30" x2="360" y2="30" stroke="#1976d2" stroke-width="2" marker-end="url(#arrowhead)"/>
        <line x1="480" y1="30" x2="540" y2="30" stroke="#1976d2" stroke-width="2" marker-end="url(#arrowhead)"/>
        <line x1="660" y1="30" x2="720" y2="30" stroke="#1976d2" stroke-width="2" marker-end="url(#arrowhead)"/>
        <line x1="840" y1="30" x2="900" y2="30" stroke="#1976d2" stroke-width="2" marker-end="url(#arrowhead)"/>
    </g>

    <!-- AWS Infrastructure Section -->
    <rect x="50" y="320" width="1100" height="540" fill="#fff3e0" rx="10"/>
    <text x="60" y="350" font-size="18" font-weight="bold" fill="#e65100">AWS Infrastructure</text>

    <!-- Route 53 -->
    <rect x="70" y="380" width="120" height="60" fill="#ffcc80" rx="5"/>
    <text x="130" y="415" text-anchor="middle" font-size="14">Route 53</text>

    <!-- VPC -->
    <rect x="70" y="460" width="1060" height="380" fill="#ffe0b2" rx="10" stroke="#fb8c00" stroke-width="2"/>
    <text x="90" y="490" font-size="16" font-weight="bold" fill="#e65100">VPC</text>

    <!-- Security Layer -->
    <g transform="translate(90,520)">
        <rect width="120" height="60" fill="#ffcc80" rx="5"/>
        <text x="60" y="35" text-anchor="middle" font-size="14">WAF</text>
        
        <rect y="80" width="120" height="60" fill="#ffcc80" rx="5"/>
        <text x="60" y="115" text-anchor="middle" font-size="14">Cognito</text>
    </g>

    <!-- ALB -->
    <rect x="270" y="550" width="120" height="60" fill="#ffcc80" rx="5"/>
    <text x="330" y="585" text-anchor="middle" font-size="14">ALB</text>

    <!-- ECS Cluster -->
    <g transform="translate(450,520)">
        <rect width="400" height="200" fill="#fff8e1" rx="10" stroke="#ffa000" stroke-width="2"/>
        <text x="20" y="30" font-size="16" font-weight="bold" fill="#ffa000">ECS Fargate Cluster</text>
        
        <!-- Blue Environment -->
        <rect x="40" y="50" width="150" height="120" fill="#81d4fa" rx="5"/>
        <text x="115" y="80" text-anchor="middle" font-size="14">Blue Environment</text>
        <rect x="60" y="90" width="110" height="30" fill="#fff" rx="3"/>
        <text x="115" y="110" text-anchor="middle" font-size="12">Node.js API</text>
        <rect x="60" y="130" width="110" height="30" fill="#fff" rx="3"/>
        <text x="115" y="150" text-anchor="middle" font-size="12">Node.js API</text>

        <!-- Green Environment -->
        <rect x="210" y="50" width="150" height="120" fill="#a5d6a7" rx="5"/>
        <text x="285" y="80" text-anchor="middle" font-size="14">Green Environment</text>
        <rect x="230" y="90" width="110" height="30" fill="#fff" rx="3"/>
        <text x="285" y="110" text-anchor="middle" font-size="12">Node.js API</text>
        <rect x="230" y="130" width="110" height="30" fill="#fff" rx="3"/>
        <text x="285" y="150" text-anchor="middle" font-size="12">Node.js API</text>
    </g>

    <!-- Monitoring Section -->
    <g transform="translate(900,520)">
        <rect width="200" height="200" fill="#c8e6c9" rx="5"/>
        <text x="100" y="30" text-anchor="middle" font-size="14" font-weight="bold">Monitoring</text>
        
        <rect x="20" y="50" width="160" height="30" fill="#fff" rx="3"/>
        <text x="100" y="70" text-anchor="middle" font-size="12">CloudWatch</text>
        
        <rect x="20" y="90" width="160" height="30" fill="#fff" rx="3"/>
        <text x="100" y="110" text-anchor="middle" font-size="12">Prometheus</text>
        
        <rect x="20" y="130" width="160" height="30" fill="#fff" rx="3"/>
        <text x="100" y="150" text-anchor="middle" font-size="12">Grafana</text>
    </g>

    <!-- Connecting Lines -->
    <line x1="130" y1="440" x2="130" y2="520" stroke="#fb8c00" stroke-width="2" marker-end="url(#arrowhead)"/>
    <line x1="210" y1="550" x2="270" y2="570" stroke="#fb8c00" stroke-width="2" marker-end="url(#arrowhead)"/>
    <line x1="210" y1="630" x2="270" y2="590" stroke="#fb8c00" stroke-width="2" marker-end="url(#arrowhead)"/>
    <line x1="390" y1="580" x2="450" y2="580" stroke="#fb8c00" stroke-width="2" marker-end="url(#arrowhead)"/>

    <!-- Arrow Marker Definition -->
    <defs>
        <marker id="arrowhead" markerWidth="10" markerHeight="7" refX="9" refY="3.5" orient="auto">
            <polygon points="0 0, 10 3.5, 0 7" fill="#1976d2"/>
        </marker>
    </defs>
</svg>